<svg width="16" height="16" viewBox="0 0 16 16" fill="none" xmlns="http://www.w3.org/2000/svg">
<path d="M7.6 3.42669L7.33333 2.48669C7.29301 2.34249 7.20531 2.21607 7.08437 2.12778C6.96344 2.0395 6.8163 1.9945 6.66667 2.00003H2.66667C2.48986 2.00003 2.32029 2.07027 2.19526 2.19529C2.07024 2.32031 2 2.48988 2 2.66669V12C2 12.1768 2.07024 12.3464 2.19526 12.4714C2.32029 12.5965 2.48986 12.6667 2.66667 12.6667H13.3333C13.5101 12.6667 13.6797 12.5965 13.8047 12.4714C13.9298 12.3464 14 12.1768 14 12V4.33336C14 4.15655 13.9298 3.98698 13.8047 3.86196C13.6797 3.73693 13.5101 3.66669 13.3333 3.66669H7.92C7.84788 3.66669 7.7777 3.6433 7.72 3.60003C7.6623 3.55675 7.62019 3.49593 7.6 3.42669Z" fill="#6ED4FB"/>
</svg>
