<svg width="16" height="16" viewBox="0 0 16 16" fill="none" xmlns="http://www.w3.org/2000/svg">
<path d="M3.2338 6.20663L2.0738 12.2733C2.06503 12.3212 2.06688 12.3705 2.07923 12.4177C2.09157 12.4649 2.11411 12.5088 2.14526 12.5463C2.17641 12.5838 2.21541 12.614 2.2595 12.6348C2.3036 12.6556 2.35172 12.6664 2.40047 12.6666H13.4471C13.604 12.6695 13.7569 12.6169 13.8789 12.5181C14.0008 12.4193 14.084 12.2807 14.1138 12.1266L15.2738 6.05996C15.2826 6.012 15.2807 5.9627 15.2684 5.91554C15.256 5.86838 15.2335 5.8245 15.2023 5.78699C15.1712 5.74948 15.1322 5.71927 15.0881 5.69847C15.044 5.67768 14.9959 5.6668 14.9471 5.66663H3.88714C3.73251 5.6669 3.58279 5.72092 3.4636 5.81943C3.34442 5.91794 3.26318 6.05482 3.2338 6.20663Z" fill="#6ED4FB"/>
<path d="M2.70667 6.10663C2.7594 5.83246 2.9061 5.58525 3.12148 5.40759C3.33687 5.22993 3.60746 5.13293 3.88667 5.1333H14V4.3333C14 4.15649 13.9298 3.98692 13.8047 3.8619C13.6797 3.73687 13.5101 3.66663 13.3333 3.66663H7.92C7.84788 3.66663 7.7777 3.64324 7.72 3.59997C7.6623 3.55669 7.62019 3.49587 7.6 3.42663L7.33333 2.48663C7.29301 2.34243 7.20531 2.21601 7.08437 2.12772C6.96344 2.03944 6.8163 1.99443 6.66667 1.99997H2.66667C2.48986 1.99997 2.32029 2.07021 2.19526 2.19523C2.07024 2.32025 2 2.48982 2 2.66663V9.8133L2.70667 6.10663Z" fill="#6ED4FB"/>
</svg>
